<svg width="32" height="32" viewBox="0 0 32 32" fill="none" xmlns="http://www.w3.org/2000/svg">
<path d="M10.4552 30.8681C9.9789 30.6395 9.77464 30.0599 9.99869 29.5739C9.99869 29.5734 10.0539 29.4542 10.1561 29.2225C10.2578 28.9902 10.4048 28.6503 10.5809 28.2247C10.9333 27.3726 11.4044 26.1761 11.8743 24.8087C12.8167 22.0798 13.7395 18.6401 13.733 16.0174C13.733 15.7374 13.7232 15.4675 13.7024 15.2096C13.5361 13.0164 12.3021 10.2626 10.9308 7.93142C9.56494 5.59375 8.08614 3.65283 7.50641 2.91913C7.34052 2.70909 7.25272 2.60334 7.25226 2.60283C6.91225 2.19289 6.9626 1.57902 7.36476 1.23247C7.76688 0.885451 8.3679 0.936837 8.7079 1.34725C8.72511 1.36851 10.3017 3.27111 11.9493 5.91153C13.5909 8.56244 15.3337 11.911 15.6017 15.0504C15.6268 15.3672 15.6387 15.6901 15.6387 16.0174C15.6323 19.0691 14.6424 22.6145 13.6728 25.4524C12.6998 28.2836 11.7321 30.3823 11.7233 30.4023C11.5609 30.7546 11.2182 30.9609 10.8606 30.9609C10.7245 30.9609 10.5864 30.931 10.4552 30.8681Z" fill="black"/>
<path d="M21.2657 30.4021C21.2573 30.3821 20.2891 28.2839 19.3161 25.4522C18.346 22.6143 17.3561 19.0689 17.3496 16.0177C17.3496 15.6889 17.362 15.3661 17.3873 15.0503C17.6555 11.9108 19.3985 8.56289 21.04 5.9119C22.688 3.27144 24.2642 1.36883 24.2814 1.34711L24.2819 1.34757C24.6215 0.937164 25.2225 0.885862 25.6247 1.23228C26.0262 1.5793 26.077 2.19271 25.737 2.60316C25.737 2.60363 25.6487 2.70941 25.483 2.91941C25.3172 3.12886 25.0778 3.43714 24.7893 3.82489C24.2119 4.60047 23.4348 5.69473 22.6478 6.95634C21.0672 9.47078 19.4739 12.7 19.2868 15.21C19.2661 15.4687 19.2554 15.7387 19.2554 16.0177C19.251 18.31 19.9541 21.2355 20.7643 23.7541C21.5721 26.2771 22.4759 28.4104 22.8332 29.2222C22.9349 29.4545 22.99 29.5736 22.9907 29.5741C23.2147 30.0602 23.0103 30.6393 22.5338 30.8684C22.4026 30.9313 22.2649 30.9613 22.129 30.9613C21.7712 30.9612 21.428 30.7544 21.2657 30.4021Z" fill="black"/>
<path d="M15.6673 9.63976L13.1064 5.06572C12.8851 4.67016 12.9612 4.17378 13.29 3.86631L15.8509 1.4703C16.2155 1.12876 16.7739 1.12876 17.1384 1.4703L19.6994 3.86631C20.0281 4.17331 20.1041 4.67016 19.8829 5.06572L17.322 9.63976C17.1531 9.9412 16.8351 10.1295 16.4947 10.1295C16.1546 10.1295 15.8362 9.94116 15.6673 9.63976ZM15.1389 4.77522L16.4945 7.19686L17.8506 4.77475L16.4947 3.50623L15.1389 4.77522Z" fill="black"/>
</svg>
